<?xml version="1.0" standalone="no"?>
<!DOCTYPE svg PUBLIC "-//W3C//DTD SVG 20010904//EN"
 "http://www.w3.org/TR/2001/REC-SVG-20010904/DTD/svg10.dtd">
<svg version="1.0" xmlns="http://www.w3.org/2000/svg"
 width="772.000000pt" height="868.000000pt" viewBox="0 0 772.000000 868.000000"
 preserveAspectRatio="xMidYMid meet">

<g transform="translate(0.000000,868.000000) scale(0.100000,-0.100000)"
fill="#000000" stroke="none">
<path d="M2177 8534 c-3 -3 -60 -8 -128 -11 -109 -5 -131 -9 -185 -34 -33 -16
-68 -29 -78 -29 -24 0 -175 -79 -222 -116 -23 -18 -63 -49 -90 -70 -27 -20
-56 -44 -64 -54 -8 -10 -27 -20 -41 -24 -15 -3 -44 -23 -65 -43 -22 -21 -55
-50 -74 -65 -65 -50 -170 -154 -170 -169 0 -9 -10 -24 -22 -36 -46 -40 -148
-170 -148 -188 0 -4 -30 -52 -67 -108 -63 -94 -123 -232 -123 -280 0 -10 -8
-31 -19 -45 -20 -30 -40 -86 -48 -135 -3 -17 -21 -76 -40 -132 -19 -55 -38
-125 -43 -155 -5 -30 -15 -77 -23 -105 -8 -27 -15 -83 -16 -124 -1 -40 -8 -86
-15 -100 -13 -23 -43 -236 -44 -301 0 -14 -3 -100 -8 -193 -5 -132 -4 -173 6
-192 11 -21 11 -37 2 -88 -14 -71 -18 -290 -8 -387 14 -139 15 -193 7 -238
-43 -220 -77 -556 -91 -900 -17 -383 -7 -1007 16 -1044 4 -7 8 -21 9 -32 4
-50 17 -205 20 -241 6 -57 30 -196 61 -343 15 -70 30 -149 35 -177 9 -64 106
-367 147 -465 18 -41 32 -79 32 -85 0 -5 25 -61 55 -123 30 -62 55 -115 55
-118 0 -2 9 -13 20 -24 11 -11 20 -27 20 -36 0 -8 38 -72 85 -142 86 -129 243
-303 321 -357 22 -14 68 -46 104 -70 36 -25 90 -52 120 -60 30 -9 80 -23 110
-32 101 -29 115 -32 200 -41 154 -16 335 -8 420 17 41 13 83 27 92 32 10 5 27
9 38 9 27 0 164 73 206 110 19 16 39 30 44 30 6 0 57 47 114 105 97 98 115
111 141 105 129 -25 232 -19 343 21 30 10 63 19 74 19 17 0 43 11 98 41 80 44
110 63 110 70 0 4 24 34 54 66 29 32 69 90 89 129 52 104 55 105 116 35 127
-147 231 -202 414 -221 102 -10 121 -9 197 17 55 19 119 85 156 162 22 47 27
73 31 161 4 121 4 202 0 206 -2 2 -19 -1 -38 -6 -48 -14 -76 -60 -84 -140 -8
-85 -52 -205 -90 -246 -40 -43 -91 -52 -160 -30 -28 9 -60 16 -69 16 -21 0
-66 32 -104 74 -15 15 -58 60 -96 100 -37 39 -74 85 -82 101 -8 17 -20 39 -27
50 -55 88 -60 101 -60 156 1 31 6 66 12 77 6 11 11 38 11 59 0 21 9 57 19 80
11 23 27 79 36 125 8 46 23 96 31 111 9 16 13 38 10 52 -3 13 0 39 8 57 16 38
38 127 43 178 2 19 7 46 12 60 19 53 29 117 26 164 -2 30 2 60 10 76 24 47 45
114 45 147 0 38 25 161 45 219 7 22 14 59 13 81 0 22 5 49 11 61 14 27 14 59
0 64 -9 3 -9 9 0 25 6 12 11 41 11 65 1 24 7 61 15 83 20 54 20 89 0 81 -18
-7 -18 -4 -3 29 6 14 17 25 25 25 8 0 13 13 13 38 0 21 4 42 10 48 10 10 33
201 25 214 -2 4 2 39 10 78 15 70 15 105 2 118 -13 13 -7 36 7 31 11 -5 13 2
10 29 -2 20 2 47 12 66 13 26 14 37 4 73 -8 28 -9 49 -2 61 15 29 4 45 -25 38
-23 -6 -24 -5 -13 15 7 15 17 20 30 16 16 -5 19 1 23 47 7 64 22 155 32 184 4
12 2 25 -4 28 -16 10 -14 26 3 26 8 0 16 14 18 33 3 17 7 39 10 47 3 8 3 12 1
8 -3 -5 -9 -8 -14 -8 -5 0 -7 30 -4 68 7 102 10 116 20 132 5 8 10 51 11 95 1
44 4 94 7 110 2 17 5 43 5 58 1 16 5 26 10 24 4 -3 8 47 10 111 2 106 18 222
35 262 4 8 8 45 10 83 4 51 1 67 -9 67 -8 0 -11 6 -7 17 5 12 2 15 -10 10 -9
-3 -19 -2 -22 3 -4 6 7 10 24 10 16 0 32 4 35 8 2 4 7 50 10 102 3 52 10 115
16 140 15 72 13 130 -5 124 -27 -11 -34 5 -19 41 8 19 14 47 14 61 0 15 7 36
16 46 13 13 14 21 5 31 -6 9 -8 27 -5 47 5 25 3 35 -9 42 -21 11 -22 46 -3 67
18 20 32 91 18 91 -6 0 -9 25 -9 60 1 34 3 56 5 50 6 -18 20 -11 24 15 4 17 1
25 -8 25 -17 0 -17 0 2 38 8 17 15 50 16 72 0 22 7 45 14 51 16 13 19 39 4 39
-5 0 -10 -4 -10 -10 0 -5 -5 -10 -11 -10 -6 0 -8 9 -3 23 4 12 8 29 9 37 1 8
4 22 7 30 4 8 9 34 11 58 4 33 2 42 -10 42 -13 0 -13 4 2 26 16 25 16 27 -6
50 -21 23 -21 25 -5 43 12 13 16 33 15 64 -2 29 3 54 14 70 15 23 15 28 2 41
-19 19 -19 31 1 61 10 16 13 31 8 42 -9 21 -12 126 -3 133 4 3 9 36 12 75 4
38 2 64 -2 56 -6 -9 -11 -10 -15 -2 -4 6 -5 15 -2 20 4 5 9 37 11 72 3 34 10
80 15 102 9 43 3 97 -11 97 -4 0 -28 18 -53 40 -51 44 -87 54 -191 54 -155 1
-259 -35 -360 -124 -57 -49 -112 -128 -118 -170 -2 -12 -8 -25 -13 -28 -12 -9
-50 -108 -58 -150 -3 -18 -20 -56 -39 -85 -18 -28 -41 -86 -51 -127 -10 -41
-25 -90 -32 -109 -8 -18 -14 -57 -14 -86 0 -37 -6 -60 -20 -77 -10 -14 -22
-45 -26 -69 -3 -24 -17 -82 -30 -129 -13 -46 -24 -100 -24 -120 0 -20 -3 -40
-7 -44 -8 -8 -12 -23 -22 -106 -5 -36 -16 -92 -25 -125 -9 -32 -16 -81 -16
-107 0 -26 -9 -71 -19 -100 -19 -54 -33 -138 -51 -308 -5 -52 -16 -135 -25
-185 -9 -49 -15 -110 -13 -135 l3 -45 23 25 22 24 0 -25 c0 -15 -12 -37 -30
-54 -31 -30 -40 -69 -17 -79 8 -3 7 -9 -6 -20 -13 -10 -22 -38 -29 -88 -14
-103 -15 -115 -16 -190 -2 -63 -17 -98 -42 -98 -12 0 -20 39 -9 46 5 3 9 18 9
34 0 22 -4 28 -15 24 -18 -7 -19 -3 -3 30 9 20 8 36 -1 68 l-13 43 -18 -23
c-24 -29 -28 -28 -22 4 3 19 1 25 -7 20 -6 -4 -11 -14 -11 -22 0 -8 -4 -14
-10 -14 -12 0 -13 13 -2 24 4 4 7 13 7 19 0 7 10 13 23 13 33 2 34 6 26 70 -5
42 -9 53 -16 40 -5 -9 -7 -20 -4 -25 6 -10 -24 -25 -32 -16 -3 3 0 5 7 5 7 0
11 6 8 14 -3 8 1 22 8 33 19 24 19 59 -1 67 -9 3 -14 16 -13 28 3 32 -16 74
-38 82 -16 7 -16 9 6 20 l23 13 -31 6 c-17 4 -31 12 -31 19 0 8 3 9 11 1 18
-18 56 6 51 33 -3 16 -9 21 -20 17 -12 -5 -14 -2 -8 18 25 84 20 105 -21 100
-16 -2 -16 2 -2 32 8 18 8 39 -2 83 -7 33 -14 77 -14 99 -1 34 -4 40 -23 39
-21 -1 -30 11 -14 18 4 2 16 19 27 38 l19 35 -27 -18 c-14 -9 -28 -17 -31 -17
-9 0 -16 34 -7 39 5 3 13 24 17 46 6 36 6 39 -9 26 -10 -7 -18 -12 -18 -10 -7
22 -6 60 2 65 5 3 8 0 7 -7 -2 -6 3 -14 10 -16 22 -8 15 90 -8 114 -13 15 -16
23 -7 26 9 3 9 8 -2 20 -7 9 -11 26 -8 37 3 11 2 20 -3 20 -4 0 -10 10 -13 23
-3 12 -9 33 -13 46 -5 17 -4 22 4 17 8 -5 12 2 12 19 0 20 -4 26 -15 21 -14
-5 -19 4 -16 31 1 7 -8 17 -19 23 -20 11 -28 50 -10 50 5 0 7 -7 4 -15 -4 -8
-1 -15 4 -15 6 0 14 9 17 21 8 23 -19 59 -43 59 -9 0 -12 3 -8 8 4 4 12 7 17
7 17 0 -2 60 -23 69 -10 4 -9 8 3 17 15 11 15 14 -4 30 -15 12 -21 26 -19 52
2 22 -3 37 -11 40 -8 3 -13 18 -12 36 1 18 -2 34 -7 37 -4 3 -9 24 -9 47 -2
57 -13 102 -25 100 -6 -1 -10 24 -9 61 1 59 -1 65 -27 82 -23 16 -27 24 -23
49 8 45 -70 255 -94 255 -5 0 -11 14 -15 31 -3 17 -20 53 -37 80 -39 59 -144
150 -165 142 -8 -3 -31 6 -52 20 -34 23 -122 43 -135 31z m139 -142 c52 -27
81 -61 138 -159 26 -46 54 -83 61 -83 14 0 26 -55 14 -67 -9 -10 23 -139 39
-155 8 -8 9 -5 5 13 -9 34 6 18 16 -19 6 -21 6 -32 -2 -35 -7 -2 -2 -13 11
-27 24 -26 28 -40 11 -40 -14 0 -4 -95 17 -165 16 -49 19 -62 45 -159 7 -28
14 -45 17 -38 7 22 20 12 32 -24 14 -40 8 -53 -16 -34 -14 12 -15 10 -8 -26 8
-47 12 -53 24 -34 10 17 9 18 40 -43 21 -42 22 -51 11 -70 -8 -11 -17 -34 -22
-50 -7 -24 -6 -27 6 -17 12 10 15 9 15 -4 0 -9 -4 -16 -10 -16 -5 0 -10 -8
-10 -17 0 -16 2 -16 11 -3 7 11 12 12 15 3 3 -7 12 -9 19 -7 9 4 13 -1 12 -16
-1 -15 -6 -20 -19 -17 -10 3 -16 1 -12 -4 3 -5 12 -9 20 -9 17 0 17 -8 -1 -40
-17 -30 -19 -131 -4 -180 5 -19 18 -80 28 -135 17 -92 20 -100 40 -98 25 3 30
-31 6 -44 -12 -7 -14 -22 -7 -83 6 -68 9 -75 32 -81 l25 -7 -24 -8 c-21 -6
-23 -11 -17 -52 8 -57 11 -60 38 -36 21 19 21 19 14 -1 -5 -11 -8 -27 -8 -35
0 -8 -4 -34 -9 -58 -6 -29 -6 -49 1 -60 9 -14 10 -13 5 6 -4 13 -2 22 4 22 6
0 11 -7 11 -15 0 -9 6 -12 15 -9 11 5 13 2 9 -10 -3 -9 -10 -16 -14 -16 -4 0
-4 -19 1 -42 4 -24 5 -73 2 -109 -6 -72 2 -123 17 -114 14 8 13 -18 -1 -32 -6
-6 -8 -17 -4 -23 6 -9 10 -9 16 1 6 10 9 8 9 -8 0 -13 6 -23 13 -23 7 0 22 -6
32 -14 18 -13 17 -14 -17 -14 -26 0 -38 5 -41 17 -3 9 -5 4 -6 -11 0 -16 2
-28 7 -28 4 0 6 -18 4 -40 -2 -23 -1 -60 2 -84 6 -39 9 -43 31 -38 14 2 26 0
26 -4 8 -61 7 -64 -12 -64 -20 0 -22 -8 -19 -74 3 -56 16 -87 35 -80 17 7 21
-11 5 -21 -5 -3 -9 -25 -9 -48 1 -23 3 -34 6 -24 2 9 8 17 13 17 19 0 19 -20
0 -52 -23 -39 -16 -85 16 -102 10 -6 21 -12 23 -13 2 -1 -7 -11 -20 -22 -20
-16 -21 -21 -10 -35 11 -13 16 -38 23 -121 1 -5 -2 -21 -5 -35 -4 -14 -4 -19
-1 -12 10 21 24 13 24 -14 0 -15 -4 -23 -11 -19 -12 8 -5 -140 11 -220 12 -61
61 -896 58 -1000 0 -27 1 -502 1 -542 1 -18 1 -45 2 -60 1 -36 -6 -71 -14 -79
-11 -11 -8 -91 4 -117 9 -20 7 -37 -12 -88 -16 -46 -24 -89 -25 -149 -1 -55
-7 -96 -17 -115 -9 -16 -19 -46 -22 -65 -3 -19 -10 -51 -15 -70 -5 -19 -14
-62 -20 -95 -7 -33 -22 -87 -35 -120 -12 -33 -26 -82 -30 -110 -4 -27 -15 -65
-25 -85 -9 -19 -20 -47 -24 -62 -8 -35 -84 -193 -141 -293 -24 -44 -56 -102
-70 -128 -40 -75 -55 -77 -166 -22 -52 26 -120 65 -151 86 -32 22 -62 39 -66
39 -5 0 -17 9 -27 20 -11 12 -33 27 -49 35 -17 8 -53 37 -81 65 -27 27 -54 50
-58 50 -4 0 -29 23 -54 50 -25 28 -52 50 -60 50 -8 0 -12 4 -8 9 3 5 -33 48
-80 96 -47 48 -85 89 -85 91 0 3 -11 17 -25 32 -14 15 -25 33 -25 40 0 7 -7
15 -15 18 -8 4 -15 11 -15 16 0 6 -22 38 -49 72 -26 33 -60 84 -76 111 -15 28
-33 57 -41 66 -8 8 -14 19 -14 24 0 18 -43 53 -58 48 -10 -4 -13 -2 -8 5 4 7
4 18 0 24 -5 7 -9 21 -9 30 -1 10 -9 26 -18 36 -9 10 -17 21 -17 25 0 3 -14
30 -31 59 -49 83 -99 175 -146 270 -24 48 -48 90 -53 93 -6 3 -10 17 -10 30 0
31 -41 106 -53 98 -6 -3 -7 -1 -3 6 4 6 0 25 -8 43 -9 17 -16 39 -16 49 0 10
-7 24 -15 32 -8 8 -11 17 -8 21 3 3 2 11 -3 18 -6 7 -16 31 -23 53 -7 22 -23
63 -36 90 -13 28 -31 75 -40 105 -9 30 -25 60 -36 68 -13 9 -19 25 -19 51 0
46 -26 136 -44 153 -7 7 -11 21 -8 31 3 10 -5 31 -17 47 -11 16 -21 40 -21 54
0 38 -22 126 -32 126 -5 0 -7 4 -3 9 3 5 1 12 -4 15 -5 4 -9 19 -9 34 1 41
-21 112 -35 112 -8 0 -12 26 -14 87 -1 50 -6 89 -12 91 -5 2 -7 10 -4 18 4 10
0 12 -12 8 -12 -5 -16 -2 -13 12 2 11 7 22 12 25 10 8 -2 69 -15 69 -5 0 -9
14 -9 30 0 22 -5 30 -17 30 -17 1 -17 2 1 15 14 11 17 22 13 52 -6 36 -10 73
-21 183 -2 25 -9 57 -15 72 -6 15 -8 35 -5 43 4 9 -1 24 -9 33 -11 12 -13 22
-7 32 16 25 12 60 -5 54 -17 -7 -21 22 -5 46 5 9 5 19 -2 27 -7 9 -7 22 2 43
10 23 10 36 1 58 -10 24 -8 34 13 73 13 24 24 60 24 80 0 20 7 49 15 65 8 16
18 47 22 69 4 22 9 44 12 48 3 5 7 36 9 70 2 34 9 73 14 87 5 14 11 36 13 50
2 14 9 38 15 53 15 37 15 64 0 69 -8 3 -5 11 10 23 12 11 22 26 22 35 0 8 7
28 15 43 16 32 33 84 45 142 9 43 26 109 42 165 8 32 26 75 49 122 5 10 9 35
9 56 0 21 4 42 9 48 4 5 16 32 26 59 10 28 33 86 51 131 18 44 35 90 37 102 2
12 6 24 9 27 3 3 4 19 2 35 -3 24 0 30 15 30 13 0 21 9 26 28 6 30 128 240
148 257 7 6 34 43 61 83 57 85 93 118 146 132 54 14 98 2 214 -59 77 -40 102
-49 112 -40 42 35 -11 101 -134 167 -75 40 -79 40 -157 36 -71 -4 -91 -10
-182 -55 -99 -48 -106 -54 -177 -142 -126 -158 -223 -357 -361 -742 -46 -129
-135 -422 -157 -520 -10 -44 -24 -65 -44 -65 -20 0 -17 17 4 22 15 4 17 18 17
111 0 59 3 107 8 107 4 0 5 10 2 23 -4 12 -2 34 4 48 5 14 6 32 1 39 -4 7 -2
29 4 49 7 20 11 42 9 49 -3 6 -1 12 4 12 4 0 9 28 9 62 2 64 6 92 17 118 16
40 37 131 42 183 3 32 9 66 14 75 5 9 10 22 10 27 4 25 25 91 33 100 4 5 8 28
8 51 0 26 10 62 28 95 15 30 37 77 50 104 26 57 73 144 107 195 26 40 51 87
61 113 3 9 10 17 15 17 5 0 6 12 3 26 -5 20 -4 25 5 19 14 -8 24 4 76 80 18
28 42 59 53 70 10 12 21 25 23 31 9 21 228 211 302 262 29 19 73 54 99 78 25
24 86 62 135 85 48 23 96 46 106 51 134 66 139 68 277 92 48 8 128 -2 166 -22z
m1985 12 c7 -8 12 -29 11 -46 0 -17 6 -43 13 -57 l14 -26 1 33 c0 22 5 32 15
32 12 0 14 -10 9 -57 -3 -32 -7 -63 -9 -70 -2 -7 0 -15 6 -19 13 -8 2 -144
-14 -163 -9 -12 -9 -13 1 -7 7 4 12 1 12 -8 0 -9 -4 -16 -10 -16 -15 0 -35
-43 -22 -48 6 -2 8 -17 5 -39 -6 -33 -4 -35 16 -28 19 6 21 3 21 -34 0 -22 -4
-43 -10 -46 -5 -3 -10 -21 -10 -39 0 -19 -7 -39 -15 -46 -10 -9 -15 -9 -15 -1
0 6 5 11 12 11 9 0 9 3 -1 13 -10 10 -15 8 -27 -8 -22 -29 -14 -61 14 -57 19
3 22 -1 22 -32 0 -32 -3 -36 -26 -36 -26 0 -26 -2 -22 -50 3 -29 1 -51 -5 -53
-7 -2 -6 -10 1 -23 10 -17 11 -17 12 -1 0 14 3 15 13 6 14 -13 18 -41 11 -76
-7 -34 -24 -27 -25 10 0 30 -1 30 -11 10 -14 -29 -3 -74 17 -67 11 5 15 -1 15
-20 0 -28 18 -34 39 -13 10 10 12 8 9 -8 -2 -11 -10 -20 -18 -20 -9 0 -15 -10
-15 -25 0 -19 -7 -26 -32 -34 -30 -8 -33 -13 -33 -47 0 -33 2 -37 24 -35 17 2
23 -1 19 -10 -3 -8 -9 -14 -14 -14 -6 0 -5 -8 1 -19 16 -32 12 -61 -9 -61 -14
0 -17 6 -13 25 2 14 0 25 -7 25 -12 0 -20 -30 -20 -80 0 -19 -5 -78 -11 -130
-19 -163 -19 -190 -3 -206 9 -8 18 -12 21 -9 4 3 0 10 -7 14 -19 12 5 81 29
81 13 0 16 -89 4 -94 -16 -6 -29 -115 -15 -129 7 -7 4 -18 -8 -36 -16 -22 -17
-29 -7 -44 7 -9 15 -15 18 -12 11 11 4 -31 -8 -45 -7 -8 -14 -31 -16 -50 -2
-28 -7 -35 -25 -35 -12 0 -25 -3 -28 -7 -12 -11 -20 -127 -16 -220 1 -20 27
-24 34 -5 2 6 0 20 -5 30 -5 10 -7 21 -4 25 11 10 18 -6 23 -48 4 -32 2 -40
-12 -40 -18 0 -54 -71 -55 -106 0 -12 7 -25 16 -28 13 -5 14 -1 9 23 -5 23 -2
29 14 34 19 5 39 -18 21 -25 -5 -2 -12 -19 -15 -38 -7 -38 -15 -51 -22 -32 -8
21 -26 13 -20 -9 3 -11 -1 -42 -9 -68 -7 -26 -16 -65 -18 -87 -2 -21 -7 -56
-12 -77 -5 -31 -3 -44 15 -68 17 -23 18 -29 7 -29 -24 0 -49 -57 -41 -96 4
-25 11 -34 25 -34 13 0 20 -7 20 -19 0 -11 5 -21 12 -23 8 -3 6 -12 -6 -29 -9
-14 -13 -28 -10 -32 4 -3 4 -14 0 -23 -5 -12 -9 -14 -20 -5 -10 8 -15 5 -24
-15 -18 -38 -14 -70 11 -88 14 -11 16 -15 5 -12 -29 9 -46 -32 -54 -129 -8
-103 -33 -273 -53 -362 -21 -97 -30 -169 -36 -298 -2 -44 -11 -100 -20 -125
-10 -29 -17 -88 -19 -170 -3 -93 -9 -139 -24 -180 -27 -73 -46 -190 -39 -234
4 -24 1 -39 -9 -47 -8 -6 -14 -20 -14 -30 0 -10 -4 -21 -10 -24 -5 -3 -9 -29
-8 -58 1 -68 -12 -160 -24 -168 -5 -3 -16 -57 -24 -120 -8 -63 -17 -132 -20
-154 -3 -22 -9 -49 -14 -60 -18 -40 -30 -101 -30 -151 0 -28 -6 -64 -14 -80
-8 -16 -22 -69 -32 -119 -9 -49 -29 -132 -45 -184 -16 -51 -29 -110 -29 -131
0 -37 -20 -67 -38 -56 -6 3 -12 20 -15 38 -2 18 -12 60 -21 93 -36 137 -56
235 -56 274 0 22 -6 58 -14 78 -23 62 -35 141 -41 264 -3 64 -10 132 -16 150
-11 38 -28 327 -33 574 -2 88 -11 270 -19 405 -18 271 -22 509 -11 554 5 22 4
27 -6 21 -9 -6 -10 -3 -2 11 5 11 6 28 2 39 -4 11 -4 25 0 30 7 9 14 159 11
225 -1 19 -4 21 -13 12 -19 -19 -37 -14 -31 7 3 11 15 21 27 23 16 2 21 10 23
38 0 19 4 76 7 125 13 192 18 293 20 362 0 40 4 73 9 73 12 0 8 50 -8 73 -9
15 -11 27 -5 37 9 13 11 13 20 0 7 -11 10 -5 10 25 0 43 19 192 47 370 9 61
17 128 17 150 1 22 4 45 8 51 4 5 5 32 3 60 -6 61 5 175 15 169 5 -3 6 4 3 15
-3 11 -9 17 -14 14 -5 -3 -9 1 -9 8 0 7 8 18 19 25 17 10 23 33 36 143 2 14 4
25 5 25 3 0 6 18 14 68 2 15 10 35 17 43 7 8 12 45 13 84 0 39 3 70 6 70 12 0
55 178 76 320 3 25 13 57 21 73 7 15 15 51 16 80 1 36 7 56 20 65 9 7 17 23
17 36 0 26 78 253 103 303 10 18 17 39 17 47 0 7 17 52 39 98 43 92 115 172
208 230 45 28 62 33 122 35 51 1 73 -2 82 -13z m-1656 -454 c3 -5 1 -10 -4
-10 -6 0 -11 5 -11 10 0 6 2 10 4 10 3 0 8 -4 11 -10z m45 -40 c0 -5 -8 -10
-17 -10 -15 0 -16 2 -3 10 19 12 20 12 20 0z m-50 -152 c0 -13 -23 -5 -28 10
-2 7 2 10 12 6 9 -3 16 -11 16 -16z m1760 -53 c0 -8 -4 -15 -10 -15 -5 0 -10
7 -10 15 0 8 5 15 10 15 6 0 10 -7 10 -15z m-40 -11 c0 -8 -5 -12 -10 -9 -6 4
-8 11 -5 16 9 14 15 11 15 -7z m-700 -93 c0 -6 -4 -13 -10 -16 -5 -3 -10 1
-10 9 0 9 5 16 10 16 6 0 10 -4 10 -9z m720 -96 c0 -8 -4 -15 -10 -15 -5 0
-10 7 -10 15 0 8 5 15 10 15 6 0 10 -7 10 -15z m-1590 -86 c0 -5 -7 -9 -15 -9
-9 0 -12 6 -9 15 6 15 24 11 24 -6z m40 -143 c0 -3 -4 -8 -10 -11 -5 -3 -10
-1 -10 4 0 6 5 11 10 11 6 0 10 -2 10 -4z m1500 -53 c0 -5 -4 -15 -10 -23 -11
-18 -25 -7 -17 15 6 15 27 21 27 8z m-1465 -63 c-3 -5 -11 -10 -16 -10 -6 0
-7 5 -4 10 3 6 11 10 16 10 6 0 7 -4 4 -10z m-55 -14 c0 -11 -19 -15 -25 -6
-3 5 1 10 9 10 9 0 16 -2 16 -4z m-2012 -37 c-2 -6 -8 -10 -13 -10 -5 0 -11 4
-13 10 -2 6 4 11 13 11 9 0 15 -5 13 -11z m2077 1 c3 -5 1 -10 -4 -10 -6 0
-11 5 -11 10 0 6 2 10 4 10 3 0 8 -4 11 -10z m-63 -152 c-7 -7 -10 -5 -7 8 5
29 6 30 12 16 3 -8 1 -18 -5 -24z m1488 12 c0 -11 -4 -20 -10 -20 -5 0 -10 9
-10 20 0 11 5 20 10 20 6 0 10 -9 10 -20z m-780 -26 c0 -8 -4 -12 -10 -9 -5 3
-10 10 -10 16 0 5 5 9 10 9 6 0 10 -7 10 -16z m-677 -1 c-7 -2 -13 -14 -14
-26 0 -12 -3 -16 -6 -9 -7 18 4 42 19 41 10 0 10 -2 1 -6z m-15 -108 c-3 -3
-9 2 -12 12 -6 14 -5 15 5 6 7 -7 10 -15 7 -18z m1472 21 c0 -3 -4 -8 -10 -11
-5 -3 -10 -1 -10 4 0 6 5 11 10 11 6 0 10 -2 10 -4z m30 -86 c0 -5 -4 -10 -10
-10 -5 0 -10 5 -10 10 0 6 5 10 10 10 6 0 10 -4 10 -10z m-1400 -20 c0 -5 -4
-10 -10 -10 -5 0 -7 -7 -4 -15 4 -8 1 -15 -5 -15 -12 0 -14 11 -5 34 7 18 24
22 24 6z m440 -74 c0 -3 -4 -8 -10 -11 -5 -3 -10 -1 -10 4 0 6 5 11 10 11 6 0
10 -2 10 -4z m-415 -96 c3 -5 1 -10 -4 -10 -6 0 -11 5 -11 10 0 6 2 10 4 10 3
0 8 -4 11 -10z m-18 -74 c-4 -9 -16 -16 -27 -16 -17 0 -19 -5 -14 -24 3 -13 1
-27 -5 -30 -11 -7 -13 0 -15 52 -1 18 4 27 14 27 8 0 19 6 24 13 11 18 31 -1
23 -22z m53 8 c0 -14 -4 -23 -10 -19 -5 3 -10 15 -10 26 0 10 5 19 10 19 6 0
10 -12 10 -26z m1340 6 c0 -5 -4 -10 -9 -10 -6 0 -13 5 -16 10 -3 6 1 10 9 10
9 0 16 -4 16 -10z m-890 -37 c-1 -25 -14 -53 -26 -53 -17 0 -18 14 -4 41 10
19 30 26 30 12z m-480 -136 c0 -20 -24 1 -27 23 -3 24 -3 24 11 5 9 -11 16
-24 16 -28z m67 17 c-3 -3 -12 -4 -19 -1 -8 3 -5 6 6 6 11 1 17 -2 13 -5z
m353 -4 c0 -5 -5 -10 -11 -10 -5 0 -7 5 -4 10 3 6 8 10 11 10 2 0 4 -4 4 -10z
m48 -38 c2 -7 -3 -12 -12 -12 -9 0 -16 7 -16 16 0 17 22 14 28 -4z m819 -32
c-3 -11 -1 -23 4 -26 5 -3 7 -9 4 -14 -4 -6 -13 -5 -24 2 -21 13 -16 58 6 58
10 0 14 -7 10 -20z m93 -16 c0 -8 -4 -14 -10 -14 -5 0 -10 9 -10 21 0 11 5 17
10 14 6 -3 10 -13 10 -21z m-1383 -16 c-3 -8 -6 -5 -6 6 -1 11 2 17 5 13 3 -3
4 -12 1 -19z m463 -4 c0 -14 -3 -14 -15 -4 -8 7 -15 14 -15 16 0 2 7 4 15 4 8
0 15 -7 15 -16z m-410 -139 c0 -8 -4 -15 -10 -15 -5 0 -10 7 -10 15 0 8 5 15
10 15 6 0 10 -7 10 -15z m25 5 c3 -5 1 -10 -4 -10 -6 0 -11 5 -11 10 0 6 2 10
4 10 3 0 8 -4 11 -10z m281 -67 c-11 -11 -17 4 -9 23 7 18 8 18 11 1 2 -10 1
-21 -2 -24z m-326 17 c0 -5 -5 -10 -11 -10 -5 0 -7 5 -4 10 3 6 8 10 11 10 2
0 4 -4 4 -10z m394 -26 c3 -8 2 -12 -4 -9 -6 3 -10 10 -10 16 0 14 7 11 14 -7z
m-324 -24 c0 -5 -4 -10 -10 -10 -5 0 -10 5 -10 10 0 6 5 10 10 10 6 0 10 -4
10 -10z m1160 0 c0 -5 -4 -10 -10 -10 -5 0 -10 5 -10 10 0 6 5 10 10 10 6 0
10 -4 10 -10z m-1224 -47 c-10 -10 -19 5 -10 18 6 11 8 11 12 0 2 -7 1 -15 -2
-18z m109 -63 c-3 -5 -11 -10 -16 -10 -6 0 -7 5 -4 10 3 6 11 10 16 10 6 0 7
-4 4 -10z m195 -10 c0 -5 -4 -10 -10 -10 -5 0 -10 5 -10 10 0 6 5 10 10 10 6
0 10 -4 10 -10z m-270 -51 c0 -5 -4 -9 -10 -9 -5 0 -10 7 -10 16 0 8 5 12 10
9 6 -3 10 -10 10 -16z m-2275 -9 c3 -5 1 -10 -4 -10 -6 0 -11 5 -11 10 0 6 2
10 4 10 3 0 8 -4 11 -10z m2349 -85 c4 -14 4 -30 1 -35 -12 -20 -21 -9 -22 25
-1 41 12 47 21 10z m247 -18 c-1 -12 -15 -9 -19 4 -3 6 1 10 8 8 6 -3 11 -8
11 -12z m-286 -46 c-7 -23 -25 -29 -25 -8 0 14 21 39 28 33 2 -3 1 -14 -3 -25z
m275 -26 c0 -8 -4 -15 -10 -15 -5 0 -7 7 -4 15 4 8 8 15 10 15 2 0 4 -7 4 -15z
m-290 -15 c0 -5 -5 -10 -11 -10 -5 0 -7 5 -4 10 3 6 8 10 11 10 2 0 4 -4 4
-10z m1120 -24 c0 -3 -4 -8 -10 -11 -5 -3 -10 -1 -10 4 0 6 5 11 10 11 6 0 10
-2 10 -4z m-3460 -30 c0 -3 -4 -8 -10 -11 -5 -3 -10 -1 -10 4 0 6 5 11 10 11
6 0 10 -2 10 -4z m2474 -45 c-9 -10 -26 18 -18 30 5 9 9 8 14 -7 4 -10 6 -21
4 -23z m-114 25 c0 -3 -4 -8 -10 -11 -5 -3 -10 -1 -10 4 0 6 5 11 10 11 6 0
10 -2 10 -4z m70 -6 c0 -5 -4 -10 -10 -10 -5 0 -10 5 -10 10 0 6 5 10 10 10 6
0 10 -4 10 -10z m40 -48 c0 -10 -22 -32 -32 -32 -5 0 -3 9 4 20 13 20 28 27
28 12z m1010 -36 c0 -8 -4 -18 -10 -21 -5 -3 -10 3 -10 14 0 12 5 21 10 21 6
0 10 -6 10 -14z m16 -63 c-10 -10 -19 5 -10 18 6 11 8 11 12 0 2 -7 1 -15 -2
-18z m-1065 -26 c-13 -13 -26 -3 -16 12 3 6 11 8 17 5 6 -4 6 -10 -1 -17z m-6
-27 c-3 -5 -11 -10 -16 -10 -6 0 -7 5 -4 10 3 6 11 10 16 10 6 0 7 -4 4 -10z
m185 -49 c0 -5 3 -18 6 -28 5 -16 4 -16 -10 1 -18 23 -20 36 -6 36 6 0 10 -4
10 -9z m-196 -26 c-4 -8 -11 -15 -16 -15 -6 0 -5 6 2 15 7 8 14 15 16 15 2 0
1 -7 -2 -15z m69 -25 c-3 -11 -7 -20 -9 -20 -2 0 -4 9 -4 20 0 11 4 20 9 20 5
0 7 -9 4 -20z m79 -24 c4 -17 1 -23 -9 -19 -14 6 -18 43 -4 43 5 0 11 -11 13
-24z m-137 4 c-3 -5 -11 -10 -16 -10 -6 0 -7 5 -4 10 3 6 11 10 16 10 6 0 7
-4 4 -10z m15 -43 c0 -2 -10 -12 -22 -23 l-23 -19 19 23 c18 21 26 27 26 19z
m170 -37 c0 -5 -4 -10 -10 -10 -5 0 -10 5 -10 10 0 6 5 10 10 10 6 0 10 -4 10
-10z m-70 -50 c0 -5 -5 -10 -11 -10 -5 0 -7 5 -4 10 3 6 8 10 11 10 2 0 4 -4
4 -10z m970 -50 c0 -5 -4 -10 -10 -10 -5 0 -10 5 -10 10 0 6 5 10 10 10 6 0
10 -4 10 -10z m-90 -80 c0 -5 -7 -10 -16 -10 -8 0 -12 5 -9 10 3 6 10 10 16
10 5 0 9 -4 9 -10z m-850 -39 c0 -12 -20 -25 -27 -18 -7 7 6 27 18 27 5 0 9
-4 9 -9z m820 -21 c0 -5 -4 -10 -10 -10 -5 0 -10 5 -10 10 0 6 5 10 10 10 6 0
10 -4 10 -10z m-8 -122 c-9 -9 -12 -7 -12 12 0 19 3 21 12 12 9 -9 9 -15 0
-24z m-982 6 c0 -8 -5 -12 -10 -9 -6 4 -8 11 -5 16 9 14 15 11 15 -7z m30
-134 c0 -5 -4 -10 -10 -10 -5 0 -10 5 -10 10 0 6 5 10 10 10 6 0 10 -4 10 -10z
m-2555 -337 c3 -38 10 -81 15 -98 5 -16 18 -73 30 -125 22 -98 149 -488 166
-512 6 -7 11 -26 12 -41 1 -15 8 -40 16 -55 7 -15 26 -65 41 -111 15 -46 41
-109 56 -139 16 -29 29 -59 29 -66 -1 -49 346 -728 439 -856 17 -25 44 -63 58
-85 102 -156 145 -213 241 -325 63 -74 296 -305 368 -365 60 -51 226 -165 238
-165 5 0 37 -18 70 -39 34 -22 95 -52 136 -67 41 -15 76 -28 77 -29 2 -1 -27
-33 -65 -71 -166 -172 -313 -234 -552 -234 -161 0 -248 12 -370 52 -95 31
-127 50 -252 153 -33 28 -70 56 -82 62 -11 7 -16 13 -11 13 6 0 2 7 -8 15 -11
7 -26 11 -35 8 -14 -5 -15 -3 -5 7 14 15 1 47 -28 67 -25 19 -125 167 -183
275 -14 26 -30 49 -36 53 -5 3 -10 15 -10 26 0 10 -5 19 -10 19 -6 0 -9 3 -8
8 4 10 -33 102 -68 172 -7 14 -15 42 -19 62 -4 21 -13 42 -21 49 -8 6 -14 23
-14 37 0 31 -21 92 -32 92 -4 0 -8 8 -8 18 0 10 -4 22 -9 28 -5 5 -11 29 -14
54 -2 25 -11 65 -20 90 -9 25 -19 63 -23 85 -4 22 -12 51 -19 65 -7 14 -15 59
-19 100 -6 79 -20 130 -47 171 -13 19 -14 30 -7 43 7 13 7 52 -1 125 -17 147
-20 173 -37 276 -7 50 -14 126 -14 170 0 44 0 93 0 110 0 16 -5 32 -11 36 -8
5 -8 12 -1 26 8 14 8 23 0 31 -7 7 -8 12 -2 12 5 0 9 96 9 242 0 134 4 295 8
358 4 63 8 143 7 178 -1 83 16 79 25 -5z m135 23 c0 -3 -4 -8 -10 -11 -5 -3
-10 -1 -10 4 0 6 5 11 10 11 6 0 10 -2 10 -4z m50 -156 c0 -5 -4 -10 -10 -10
-5 0 -10 5 -10 10 0 6 5 10 10 10 6 0 10 -4 10 -10z m2455 -52 c-19 -11 -30
-5 -21 11 4 6 14 7 22 4 15 -5 14 -7 -1 -15z m755 -128 c0 -16 -4 -30 -10 -30
-5 0 -10 -7 -10 -15 0 -8 -5 -15 -11 -15 -7 0 -8 7 -4 18 3 9 9 29 12 45 7 36
23 35 23 -3z m-3481 -261 c-19 -12 -24 -2 -8 17 9 11 14 13 17 4 3 -7 -2 -16
-9 -21z m381 -39 c0 -5 -5 -10 -11 -10 -5 0 -7 5 -4 10 3 6 8 10 11 10 2 0 4
-4 4 -10z m2377 -6 c-3 -3 -12 -4 -19 -1 -8 3 -5 6 6 6 11 1 17 -2 13 -5z
m-2317 -148 c0 -7 -9 -16 -21 -19 -20 -5 -20 -5 -3 14 20 23 24 23 24 5z m50
-6 c0 -5 -4 -10 -10 -10 -5 0 -10 5 -10 10 0 6 5 10 10 10 6 0 10 -4 10 -10z
m3010 0 c0 -5 -4 -10 -10 -10 -5 0 -10 5 -10 10 0 6 5 10 10 10 6 0 10 -4 10
-10z m0 -134 c0 -3 -4 -8 -10 -11 -5 -3 -10 -1 -10 4 0 6 5 11 10 11 6 0 10
-2 10 -4z m-730 -18 c0 -4 -4 -8 -9 -8 -6 0 -12 4 -15 8 -3 5 1 9 9 9 8 0 15
-4 15 -9z m30 -212 c0 -3 -4 -8 -10 -11 -5 -3 -10 -1 -10 4 0 6 5 11 10 11 6
0 10 -2 10 -4z m550 -60 c0 -8 -7 -16 -15 -20 -8 -3 -15 -12 -15 -21 0 -8 -4
-15 -10 -15 -16 0 -12 32 7 52 19 21 33 23 33 4z m-440 -206 c0 -5 -5 -10 -11
-10 -5 0 -7 5 -4 10 3 6 8 10 11 10 2 0 4 -4 4 -10z m-2035 -251 c11 -17 -1
-21 -15 -4 -8 9 -8 15 -2 15 6 0 14 -5 17 -11z m1959 -281 c31 -117 39 -143
64 -208 13 -36 40 -99 58 -142 42 -94 42 -129 3 -235 -56 -154 -84 -187 -181
-217 -9 -3 -24 -19 -33 -36 -15 -30 -15 -30 10 -40 15 -6 53 -10 86 -10 32 0
59 -2 59 -5 0 -47 -169 -160 -258 -171 -15 -2 -82 -7 -149 -11 -118 -6 -123
-5 -123 14 0 10 11 34 25 53 14 19 25 39 25 46 0 7 11 26 25 42 14 17 25 39
25 50 0 11 12 35 27 52 27 33 71 108 99 170 8 19 25 55 36 80 19 40 38 110 55
195 3 17 12 39 19 50 18 26 18 39 -1 31 -22 -8 -18 4 11 35 19 20 29 46 40
109 7 45 12 86 9 90 -3 5 6 30 20 56 14 27 23 54 20 62 -2 7 -1 11 4 8 4 -3
16 -34 25 -68z m251 -326 c-4 -4 -10 -1 -13 7 -4 11 -6 11 -13 0 -7 -11 -9
-11 -9 3 0 9 6 18 13 21 14 5 32 -21 22 -31z m-425 -17 c-7 -9 -15 -13 -17
-11 -7 7 7 26 19 26 6 0 6 -6 -2 -15z m-50 -5 c0 -5 -5 -10 -11 -10 -5 0 -7 5
-4 10 3 6 8 10 11 10 2 0 4 -4 4 -10z m520 -190 c0 -5 -7 -10 -15 -10 -8 0
-15 5 -15 10 0 6 7 10 15 10 8 0 15 -4 15 -10z m14 -64 c-3 -9 -12 -12 -22 -9
-15 6 -9 11 25 22 1 1 0 -5 -3 -13z"/>
<path d="M2596 5584 c-10 -26 3 -60 24 -60 24 0 39 54 19 67 -21 13 -36 11
-43 -7z"/>
<path d="M4323 8195 c0 -44 2 -61 4 -37 2 23 2 59 0 80 -2 20 -4 1 -4 -43z"/>
<path d="M4310 7269 c0 -5 5 -7 10 -4 6 3 10 8 10 11 0 2 -4 4 -10 4 -5 0 -10
-5 -10 -11z"/>
<path d="M4221 6451 c-20 -13 -24 -81 -6 -81 9 0 15 10 16 23 0 12 2 32 5 45
4 25 4 25 -15 13z"/>
<path d="M6076 7773 c-44 -7 -93 -18 -109 -24 -23 -10 -30 -10 -37 1 -6 9 -11
7 -20 -9 -9 -18 -14 -20 -26 -10 -8 6 -14 8 -14 5 0 -4 -9 -2 -20 4 -17 9 -22
7 -30 -12 -6 -17 -9 -19 -9 -5 -1 21 -50 23 -89 3 -15 -7 -55 -17 -89 -21 -34
-4 -67 -13 -73 -20 -6 -7 -33 -16 -61 -20 -27 -4 -52 -12 -57 -19 -7 -11 -42
-23 -149 -50 -29 -7 -65 -22 -80 -32 -15 -10 -34 -17 -41 -16 -19 4 -182 -77
-188 -93 -3 -8 -13 -13 -22 -13 -9 1 -33 -6 -52 -15 -19 -9 -57 -24 -85 -35
-27 -10 -77 -36 -110 -58 -33 -21 -69 -43 -80 -49 -23 -12 -74 -84 -75 -106 0
-22 62 -79 87 -79 34 0 70 17 157 73 131 84 95 65 301 163 99 47 222 97 300
121 27 9 55 23 61 31 6 8 26 16 45 18 19 2 52 10 74 18 57 20 277 72 360 85
39 6 88 14 110 18 82 14 437 12 515 -2 110 -21 266 -64 335 -92 114 -47 295
-145 340 -183 11 -10 36 -26 55 -35 19 -10 52 -33 73 -51 20 -19 43 -34 50
-35 6 0 33 -24 59 -52 107 -117 188 -197 197 -197 6 0 17 -12 25 -27 14 -26
15 -21 16 84 l0 111 -39 39 c-90 89 -173 165 -205 187 -19 13 -64 47 -100 75
-40 32 -79 54 -100 58 -21 3 -41 15 -50 28 -9 13 -30 26 -48 30 -18 4 -49 19
-68 34 -61 46 -167 86 -204 77 -15 -4 -26 1 -34 14 -7 11 -19 20 -27 20 -8 0
-47 11 -87 24 -40 14 -113 30 -163 37 -124 16 -423 17 -519 2z"/>
<path d="M7712 6080 c0 -19 2 -27 5 -17 2 9 2 25 0 35 -3 9 -5 1 -5 -18z"/>
<path d="M7711 5204 c0 -11 3 -14 6 -6 3 7 2 16 -1 19 -3 4 -6 -2 -5 -13z"/>
<path d="M7713 5045 c0 -44 2 -61 4 -37 2 23 2 59 0 80 -2 20 -4 1 -4 -43z"/>
<path d="M7706 4923 c-3 -10 -4 -69 -3 -131 2 -62 0 -115 -4 -118 -13 -7 -3
-354 10 -367 8 -8 11 69 11 311 0 177 -2 322 -4 322 -3 0 -7 -8 -10 -17z"/>
<path d="M6075 4870 c-26 -5 -30 -10 -28 -34 1 -16 8 -34 14 -40 9 -8 10 -8 5
2 -4 6 -3 12 2 12 5 0 12 -9 15 -20 3 -13 1 -18 -5 -13 -7 4 -8 1 -4 -6 5 -7
14 -10 22 -7 8 3 14 1 14 -3 0 -5 3 -17 7 -27 4 -11 3 -15 -4 -11 -6 4 -2 -17
9 -45 33 -88 49 -141 58 -193 15 -88 37 -169 54 -200 9 -16 16 -38 16 -48 0
-10 5 -27 10 -37 6 -11 12 -32 14 -47 7 -56 19 -108 28 -127 6 -10 19 -55 29
-100 11 -44 23 -90 28 -101 21 -47 41 -114 51 -174 6 -35 15 -71 20 -80 9 -18
55 -170 64 -213 7 -31 -11 -46 -64 -51 -18 -2 -36 -10 -40 -17 -7 -11 -12 -10
-25 4 -10 9 -24 15 -31 12 -8 -3 -14 0 -14 7 0 9 -2 9 -9 -1 -11 -17 -34 9
-26 30 3 8 -6 25 -20 38 -21 19 -25 33 -25 76 0 29 -6 73 -14 96 -8 24 -17 63
-20 88 -6 46 -13 85 -16 85 -1 0 -3 18 -5 40 -10 96 -27 193 -39 230 -8 22
-16 57 -19 78 -8 50 -72 156 -100 162 -35 9 -92 1 -91 -13 1 -6 2 -25 3 -41 0
-16 8 -37 17 -45 8 -9 13 -20 10 -25 -8 -12 14 -162 23 -157 3 2 7 -29 7 -69
1 -40 7 -97 14 -127 8 -32 14 -155 15 -319 3 -293 14 -446 51 -709 23 -161 67
-364 94 -436 7 -16 13 -37 15 -47 2 -10 26 -61 52 -115 63 -128 167 -238 256
-271 56 -20 129 -26 175 -13 55 16 130 133 148 229 4 21 8 47 10 58 2 11 4 74
3 140 0 66 0 139 1 163 0 23 -7 59 -17 80 -17 35 -19 69 -5 84 4 4 25 -9 47
-28 99 -87 319 -169 425 -158 103 10 212 64 260 129 8 11 25 30 38 42 14 13
36 46 51 75 27 54 33 66 67 128 17 32 19 64 22 381 l3 346 -52 34 c-31 20 -54
29 -56 22 -3 -7 -19 -9 -42 -6 -35 5 -40 2 -60 -30 -20 -33 -21 -37 -6 -113 8
-44 16 -130 19 -191 3 -62 7 -116 10 -121 8 -13 -21 -194 -40 -249 -46 -135
-159 -281 -234 -300 -57 -15 -226 67 -310 149 -53 52 -72 80 -101 148 -20 47
-42 112 -48 145 -7 33 -14 69 -17 80 -8 33 -24 138 -24 163 0 13 4 21 9 18 5
-3 14 1 21 9 7 8 38 24 70 36 41 15 57 25 53 35 -3 8 -1 14 5 14 6 0 12 -6 15
-12 5 -17 37 8 37 29 0 8 6 13 13 10 6 -2 30 11 52 30 21 18 46 33 55 32 27
-2 60 13 60 27 0 8 6 14 14 14 7 0 24 10 38 23 33 29 64 47 82 47 8 0 29 17
47 38 17 20 28 31 25 24 -6 -10 -2 -10 18 -1 14 7 23 16 20 20 -3 5 0 9 7 9 7
0 25 14 40 31 15 17 32 28 38 24 6 -3 11 1 11 9 0 9 5 16 10 16 20 0 94 55
138 103 25 26 51 47 58 47 10 0 14 -29 16 -127 2 -71 4 22 6 205 1 184 -2 332
-7 332 -21 0 -29 -86 -11 -119 7 -14 3 -26 -20 -51 -16 -17 -26 -38 -24 -45 3
-7 1 -16 -5 -20 -6 -3 -11 -1 -11 6 0 8 -4 8 -15 -1 -8 -7 -12 -16 -9 -21 3
-5 1 -9 -4 -9 -5 0 -12 -10 -16 -22 -4 -17 -8 -20 -14 -10 -11 17 -30 -4 -47
-55 -7 -21 -19 -39 -26 -42 -12 -3 -12 -1 0 12 12 15 11 17 -3 17 -9 0 -21 -9
-28 -20 -7 -11 -20 -20 -29 -20 -28 0 -43 -30 -44 -83 0 -34 -5 -52 -14 -55
-8 -3 -11 0 -7 6 3 6 2 13 -4 17 -6 4 -8 12 -4 18 3 7 -13 -7 -35 -30 -44 -46
-57 -53 -47 -27 5 13 1 15 -21 9 -34 -8 -84 -55 -65 -62 17 -7 15 -23 -3 -23
-8 0 -15 -4 -15 -10 0 -18 -20 -11 -20 8 -1 11 -6 7 -17 -13 -13 -25 -17 -27
-22 -12 -5 14 -17 9 -82 -37 -41 -29 -89 -60 -105 -67 -18 -9 -33 -27 -41 -49
l-12 -35 0 30 c-1 22 -4 26 -13 17 -7 -7 -19 -12 -28 -12 -9 0 -31 -11 -50
-25 -64 -47 -64 -47 -81 230 -13 202 -16 325 -9 325 3 0 6 10 7 23 4 49 33
294 38 327 3 19 8 58 11 85 7 55 62 175 100 218 28 31 65 35 112 11 18 -8 74
-68 126 -133 52 -64 102 -123 111 -131 25 -21 69 -111 69 -145 1 -25 8 -33 48
-52 98 -47 147 21 94 129 -9 17 -16 41 -16 54 0 14 -20 45 -51 78 -28 31 -62
70 -76 88 -13 18 -32 36 -41 40 -10 4 -12 7 -4 7 16 1 -26 50 -113 133 -95 91
-183 114 -308 80 -58 -15 -100 -49 -139 -111 -91 -142 -121 -263 -156 -628 -4
-43 -6 -133 -5 -200 0 -68 -3 -123 -7 -123 -5 0 -9 8 -8 18 1 32 -13 97 -28
126 -8 16 -14 36 -14 44 0 7 -6 28 -14 45 -30 71 -36 89 -36 111 0 12 -3 26
-7 29 -3 4 -8 21 -10 39 -2 18 -8 37 -13 42 -6 6 -10 20 -10 32 0 12 -7 27
-15 34 -9 7 -14 19 -11 26 3 7 1 16 -3 18 -5 3 -11 27 -15 53 -12 92 -61 273
-73 273 -8 0 -11 10 -7 29 4 20 -2 45 -20 81 -14 28 -26 57 -27 63 0 7 -13 22
-30 35 -25 20 -30 21 -35 8 -7 -19 -21 -21 -26 -3 -2 8 -13 11 -33 7z m915
-110 c0 -5 -2 -10 -4 -10 -3 0 -8 5 -11 10 -3 6 -1 10 4 10 6 0 11 -4 11 -10z
m110 -74 c0 -3 -4 -8 -10 -11 -5 -3 -10 -1 -10 4 0 6 5 11 10 11 6 0 10 -2 10
-4z m-293 -32 c-3 -3 -12 -4 -19 -1 -8 3 -5 6 6 6 11 1 17 -2 13 -5z m-627
-25 c0 -6 -4 -7 -10 -4 -5 3 -10 11 -10 16 0 6 5 7 10 4 6 -3 10 -11 10 -16z
m40 -93 c0 -22 -13 -26 -26 -8 -7 9 -13 28 -13 42 l0 25 19 -24 c11 -13 20
-29 20 -35z m1054 3 c-31 -12 -39 -10 -19 5 11 8 24 12 29 8 5 -3 1 -9 -10
-13z m-17 -74 c-7 -13 -14 -20 -15 -14 -5 14 6 39 17 39 5 0 4 -11 -2 -25z
m100 -87 c-3 -8 -6 -5 -6 6 -1 11 2 17 5 13 3 -3 4 -12 1 -19z m-1037 -38 c0
-5 -7 -10 -15 -10 -8 0 -15 5 -15 10 0 6 7 10 15 10 8 0 15 -4 15 -10z m-12
-158 c2 -7 -3 -12 -12 -12 -9 0 -16 7 -16 16 0 17 22 14 28 -4z m62 -42 c0
-11 -4 -20 -10 -20 -5 0 -10 9 -10 20 0 11 5 20 10 20 6 0 10 -9 10 -20z m-34
-27 c-10 -10 -19 5 -10 18 6 11 8 11 12 0 2 -7 1 -15 -2 -18z m1364 -53 c0 -5
-4 -10 -10 -10 -5 0 -10 5 -10 10 0 6 5 10 10 10 6 0 10 -4 10 -10z m-1359
-53 c-13 -13 -26 -3 -16 12 3 6 11 8 17 5 6 -4 6 -10 -1 -17z m1329 -12 c0 -8
-4 -15 -10 -15 -5 0 -10 7 -10 15 0 8 5 15 10 15 6 0 10 -7 10 -15z m-60 -29
c0 -3 -4 -8 -10 -11 -5 -3 -10 -1 -10 4 0 6 5 11 10 11 6 0 10 -2 10 -4z m40
-5 c0 -6 -4 -13 -10 -16 -5 -3 -10 1 -10 9 0 9 5 16 10 16 6 0 10 -4 10 -9z
m-70 -35 c0 -11 -19 -15 -25 -6 -3 5 1 10 9 10 9 0 16 -2 16 -4z m42 -18 c-7
-7 -12 -8 -12 -2 0 14 12 26 19 19 2 -3 -1 -11 -7 -17z m-162 -53 c-7 -8 -17
-15 -22 -15 -6 0 -5 7 2 15 7 8 17 15 22 15 6 0 5 -7 -2 -15z m-1033 -22 c0
-17 -14 -33 -29 -33 -16 0 -7 39 10 43 9 3 17 5 18 6 0 0 1 -7 1 -16z m33 -18
c0 -8 -4 -15 -10 -15 -5 0 -10 7 -10 15 0 8 5 15 10 15 6 0 10 -7 10 -15z
m1040 -31 c0 -8 -5 -12 -10 -9 -6 4 -8 11 -5 16 9 14 15 11 15 -7z m-47 -39
c-3 -9 -8 -14 -10 -11 -3 3 -2 9 2 15 9 16 15 13 8 -4z m-953 -51 c0 -8 -4
-14 -10 -14 -5 0 -10 9 -10 21 0 11 5 17 10 14 6 -3 10 -13 10 -21z m848 -11
c-9 -21 -54 -83 -60 -83 -7 0 6 27 32 68 14 20 36 32 28 15z m-48 -13 c0 -5
-9 -24 -20 -42 -17 -28 -20 -30 -20 -12 0 12 7 27 15 34 8 7 12 16 9 21 -3 5
0 9 5 9 6 0 11 -4 11 -10z m-116 -66 c9 -23 8 -24 -13 -24 -14 0 -18 5 -14 20
6 24 19 26 27 4z m58 -36 c-7 -7 -12 -8 -12 -2 0 14 12 26 19 19 2 -3 -1 -11
-7 -17z m-176 -43 c9 -8 14 -15 12 -16 -25 -6 -48 -8 -48 -5 0 9 12 36 17 36
2 0 11 -7 19 -15z m-896 -5 c0 -5 -7 -10 -15 -10 -8 0 -15 5 -15 10 0 6 7 10
15 10 8 0 15 -4 15 -10z m1506 -37 c-10 -10 -19 5 -10 18 6 11 8 11 12 0 2 -7
1 -15 -2 -18z m-690 -10 c-10 -10 -19 5 -10 18 6 11 8 11 12 0 2 -7 1 -15 -2
-18z m-811 -23 c3 -5 2 -10 -4 -10 -5 0 -13 5 -16 10 -3 6 -2 10 4 10 5 0 13
-4 16 -10z m1502 -35 c0 -8 -4 -12 -8 -9 -4 2 -10 0 -14 -5 -3 -6 -12 -8 -20
-5 -11 5 -11 9 2 24 17 20 40 17 40 -5z m-757 -27 c0 -4 -4 -8 -10 -8 -5 0
-10 4 -10 9 0 5 -3 18 -6 28 -5 16 -4 16 10 -1 9 -11 16 -23 16 -28z m-677 2
c10 -16 16 -30 14 -30 -2 0 -16 14 -30 30 -16 17 -22 30 -14 30 7 0 21 -13 30
-30z m462 -21 c11 -17 0 -20 -21 -4 -17 13 -17 14 -2 15 9 0 20 -5 23 -11z
m965 -9 c0 -5 -5 -10 -11 -10 -5 0 -7 5 -4 10 3 6 8 10 11 10 2 0 4 -4 4 -10z
m-1447 -30 c-10 -11 -21 -20 -26 -20 -4 0 -3 9 3 20 6 11 17 20 25 20 12 0 12
-4 -2 -20z m617 1 c0 -5 -7 -12 -16 -15 -14 -5 -15 -4 -4 9 14 17 20 19 20 6z
m-180 -15 c0 -20 -14 -33 -31 -29 -10 3 -19 0 -19 -6 0 -6 -7 -11 -16 -11 -10
0 -6 8 13 25 25 21 53 33 53 21z m1030 -6 c0 -5 -4 -10 -10 -10 -5 0 -10 5
-10 10 0 6 5 10 10 10 6 0 10 -4 10 -10z m-1425 -10 c3 -5 1 -10 -4 -10 -6 0
-11 5 -11 10 0 6 2 10 4 10 3 0 8 -4 11 -10z m476 -15 c29 9 23 -2 -10 -18
-29 -14 -29 -14 -26 12 5 36 7 39 12 18 3 -12 10 -16 24 -12z m-541 -7 c0 -4
-7 -8 -15 -8 -8 0 -15 4 -15 8 0 5 7 9 15 9 8 0 15 -4 15 -9z m370 -14 c0 -2
-7 -4 -15 -4 -8 0 -15 4 -15 10 0 5 7 7 15 4 8 -4 15 -8 15 -10z m-297 -41
c32 -16 153 -43 178 -40 8 2 20 6 27 10 7 5 12 4 12 -2 0 -6 11 -11 24 -11 40
0 42 -3 81 -213 8 -43 17 -82 20 -87 3 -4 10 -43 15 -86 6 -44 15 -93 20 -109
6 -17 12 -69 13 -117 3 -61 9 -95 21 -113 12 -19 14 -30 7 -39 -6 -7 -13 -39
-16 -73 -3 -33 -7 -68 -9 -79 -2 -10 -7 -53 -11 -94 -7 -69 -37 -173 -55 -194
-9 -10 -59 23 -106 69 -16 16 -36 49 -42 71 -7 23 -19 47 -27 54 -8 7 -15 19
-15 26 0 7 -11 38 -25 68 -14 30 -26 64 -28 76 -2 12 -8 25 -15 28 -6 4 -16
48 -21 97 -6 50 -13 106 -16 125 -2 19 -9 64 -15 100 -6 36 -13 75 -14 87 -1
12 -7 28 -12 35 -26 34 -35 88 -23 122 10 28 10 49 1 99 -12 65 -17 207 -7
207 4 0 20 -7 38 -17z m92 -3 c-3 -5 -13 -10 -21 -10 -8 0 -12 5 -9 10 3 6 13
10 21 10 8 0 12 -4 9 -10z m320 -88 c-8 -8 -25 10 -19 20 4 6 9 5 15 -3 4 -7
6 -15 4 -17z m1000 -55 c-10 -8 -15 -19 -11 -25 4 -7 1 -12 -8 -12 -9 0 -16 5
-16 11 0 13 29 38 44 39 6 0 2 -6 -9 -13z m-1045 -31 c0 -3 -4 -8 -10 -11 -5
-3 -10 -1 -10 4 0 6 5 11 10 11 6 0 10 -2 10 -4z m90 -51 c0 -8 -2 -15 -4 -15
-2 0 -6 7 -10 15 -3 8 -1 15 4 15 6 0 10 -7 10 -15z m950 -75 c0 -5 -5 -10
-11 -10 -5 0 -7 5 -4 10 3 6 8 10 11 10 2 0 4 -4 4 -10z m-920 -35 c-7 -8 -17
-15 -23 -15 -6 0 -2 7 9 15 25 19 30 19 14 0z m764 -103 c3 -5 -1 -9 -9 -9 -8
0 -15 4 -15 9 0 4 4 8 9 8 6 0 12 -4 15 -8z m-513 -205 c-8 -8 -11 -7 -11 4 0
20 13 34 18 19 3 -7 -1 -17 -7 -23z m166 -59 c-3 -8 -6 -5 -6 6 -1 11 2 17 5
13 3 -3 4 -12 1 -19z"/>
<path d="M5554 4659 c-9 -16 5 -143 20 -182 8 -18 17 -70 20 -117 9 -102 33
-217 52 -247 10 -15 10 -24 3 -29 -6 -4 -8 -20 -5 -38 3 -17 8 -55 10 -84 3
-28 8 -57 12 -64 4 -7 9 -32 11 -57 1 -25 7 -65 12 -90 6 -25 15 -68 21 -95 6
-28 14 -93 16 -145 3 -53 10 -109 15 -125 5 -16 9 -45 9 -65 0 -20 3 -46 6
-59 5 -18 9 -20 20 -11 23 19 27 3 5 -18 -20 -18 -20 -25 -11 -144 5 -68 10
-171 10 -229 0 -105 8 -139 29 -126 16 11 13 -5 -5 -25 -13 -14 -19 -62 -30
-221 -16 -236 -51 -402 -99 -463 -30 -40 -40 -40 -113 2 -64 38 -182 187 -182
231 0 11 -8 30 -19 43 -27 35 -77 147 -89 199 -16 72 -42 162 -49 174 -4 6 -9
20 -11 31 -1 11 -11 38 -22 61 -11 22 -20 59 -20 82 0 23 -4 42 -10 42 -5 0
-10 15 -10 34 0 18 -3 48 -6 65 -6 27 -9 29 -22 19 -13 -12 -14 -11 -2 8 18
30 -5 181 -37 242 -13 23 -25 62 -28 85 -3 23 -9 43 -14 45 -5 2 -7 12 -4 22
3 10 -4 32 -16 48 -13 19 -17 32 -10 39 7 7 5 14 -6 23 -8 7 -15 27 -15 46 0
18 -4 35 -10 39 -5 3 -7 12 -4 20 3 7 -2 25 -12 40 -9 14 -18 43 -20 63 -8 96
-17 154 -39 240 -13 50 -27 130 -31 177 -8 100 -23 121 -77 111 -27 -5 -38
-14 -52 -46 -15 -34 -17 -57 -12 -157 4 -67 16 -153 27 -198 12 -44 25 -107
30 -140 17 -105 48 -227 58 -221 4 2 8 -8 9 -22 2 -45 20 -144 36 -202 8 -30
18 -77 22 -105 3 -27 15 -84 26 -125 10 -41 23 -102 28 -135 14 -84 36 -178
49 -201 5 -10 15 -46 22 -79 8 -33 19 -71 25 -85 7 -14 18 -53 25 -87 7 -35
19 -68 26 -74 8 -6 14 -17 14 -24 0 -7 12 -39 27 -71 52 -115 122 -220 196
-295 64 -64 86 -81 153 -107 82 -33 150 -41 199 -22 14 5 40 12 58 16 72 12
112 85 197 359 8 25 26 527 21 575 -1 8 -5 66 -9 128 -5 85 -11 117 -23 125
-13 10 -15 29 -11 110 3 63 1 97 -6 97 -6 0 -13 -6 -16 -12 -3 -7 -3 26 1 73
4 69 2 88 -10 100 -9 9 -17 42 -20 77 -3 34 -10 69 -15 79 -6 9 -7 26 -2 37 8
24 7 62 -3 72 -4 4 -7 16 -7 26 0 10 -4 18 -10 18 -5 0 -7 6 -4 14 3 8 1 17
-5 20 -6 4 -8 13 -5 20 3 7 -4 29 -15 47 -12 19 -21 51 -21 74 0 22 -5 58 -11
80 -7 22 -12 81 -13 132 -1 87 -3 93 -30 122 -15 16 -25 34 -21 41 4 6 1 17
-5 25 -6 8 -9 19 -5 24 3 6 -2 48 -11 93 -9 46 -19 96 -21 111 -3 16 -14 34
-24 40 -11 7 -19 18 -19 25 0 12 -35 47 -48 47 -4 0 -12 4 -19 8 -6 4 -15 2
-19 -4z m56 -84 c0 -8 -4 -15 -10 -15 -5 0 -10 7 -10 15 0 8 5 15 10 15 6 0
10 -7 10 -15z m5 -75 c3 -5 1 -10 -4 -10 -6 0 -11 5 -11 10 0 6 2 10 4 10 3 0
8 -4 11 -10z m45 -220 c0 -5 -5 -10 -11 -10 -5 0 -7 5 -4 10 3 6 8 10 11 10 2
0 4 -4 4 -10z m26 -127 c-5 -61 -6 -62 -16 -38 -18 43 -11 75 18 84 1 1 0 -20
-2 -46z m54 9 c0 -13 -12 -22 -22 -16 -10 6 -1 24 13 24 5 0 9 -4 9 -8z m-30
-87 c0 -8 -7 -15 -15 -15 -16 0 -20 12 -8 23 11 12 23 8 23 -8z m-9 -102 c-8
-15 -10 -15 -11 -2 0 17 10 32 18 25 2 -3 -1 -13 -7 -23z m39 -71 c0 -13 -12
-22 -22 -16 -10 6 -1 24 13 24 5 0 9 -4 9 -8z m20 -166 c0 -11 -19 -15 -25 -6
-3 5 1 10 9 10 9 0 16 -2 16 -4z m-15 -55 c3 -5 1 -12 -5 -16 -5 -3 -10 1 -10
9 0 18 6 21 15 7z m15 -95 c0 -3 -4 -8 -10 -11 -5 -3 -10 -1 -10 4 0 6 5 11
10 11 6 0 10 -2 10 -4z m70 -156 c0 -5 -7 -10 -15 -10 -8 0 -15 5 -15 10 0 6
7 10 15 10 8 0 15 -4 15 -10z m-10 -40 c0 -5 -5 -10 -11 -10 -5 0 -7 -4 -4
-10 3 -5 1 -10 -4 -10 -13 0 -13 3 -5 24 7 18 24 22 24 6z m34 -4 c-21 -15
-30 -14 -19 3 3 6 14 11 23 11 13 0 13 -2 -4 -14z m-49 -65 c3 -5 1 -12 -5
-16 -5 -3 -10 1 -10 9 0 18 6 21 15 7z m38 -226 c-3 -8 -9 -15 -14 -15 -10 0
-12 24 -3 33 11 11 24 -3 17 -18z m43 -451 c-11 -7 -22 -11 -25 -8 -3 3 3 12
13 20 11 7 22 11 25 8 3 -3 -3 -12 -13 -20z m-56 -195 c0 -5 -7 -9 -15 -9 -15
0 -20 12 -9 23 8 8 24 -1 24 -14z"/>
<path d="M4335 4584 c-11 -3 -30 -7 -43 -10 -14 -3 -20 -9 -16 -16 4 -7 3 -8
-4 -4 -17 10 -50 -11 -66 -42 -12 -22 -12 -33 -2 -57 17 -40 33 -51 81 -59 37
-6 41 -5 58 23 10 17 27 36 39 42 26 14 103 15 120 2 23 -19 72 -23 91 -9 16
12 16 18 5 56 -18 60 -42 72 -151 76 -51 2 -101 1 -112 -2z"/>
<path d="M4392 3594 l-34 -27 7 -116 c3 -64 10 -138 15 -166 5 -27 11 -97 14
-155 11 -199 23 -340 41 -480 36 -277 57 -418 70 -465 7 -27 18 -77 25 -110
10 -56 51 -194 70 -240 4 -11 14 -36 20 -55 7 -19 36 -70 64 -112 68 -104 114
-130 210 -121 65 6 67 7 82 42 17 39 24 178 11 224 -4 15 -14 27 -22 27 -18 0
-52 -48 -69 -97 -7 -21 -17 -38 -22 -37 -9 1 -43 55 -63 99 -17 39 -91 285
-91 305 0 10 -6 34 -14 52 -29 71 -36 110 -51 313 -9 116 -23 253 -31 305 -9
52 -15 129 -15 170 0 41 -6 119 -14 172 -8 54 -15 140 -16 190 0 51 -4 128 -7
171 -9 95 -34 127 -103 134 -37 3 -50 -1 -77 -23z"/>
<path d="M5365 1680 c-3 -5 -1 -10 4 -10 6 0 11 5 11 10 0 6 -2 10 -4 10 -3 0
-8 -4 -11 -10z"/>
</g>
</svg>
